<mxfile host="app.diagrams.net" agent="Mozilla/5.0 (Windows NT 10.0; Win64; x64) AppleWebKit/537.36 (KHTML, like Gecko) Chrome/129.0.0.0 Safari/537.36" version="24.7.17">
  <diagram name="Page-1" id="BhRPHUS0l54udLJ2eQ2l">
    <mxGraphModel dx="934" dy="539" grid="1" gridSize="10" guides="1" tooltips="1" connect="1" arrows="1" fold="1" page="1" pageScale="1" pageWidth="850" pageHeight="1100" math="0" shadow="0">
      <root>
        <mxCell id="0" />
        <mxCell id="1" parent="0" />
        <mxCell id="IHSmPrDhmEadpVmLW_by-4" value="Pelanggan" style="shape=umlActor;verticalLabelPosition=bottom;verticalAlign=top;html=1;" vertex="1" parent="1">
          <mxGeometry x="140" y="260" width="30" height="60" as="geometry" />
        </mxCell>
        <mxCell id="IHSmPrDhmEadpVmLW_by-5" value="Autentikasi" style="shape=umlActor;verticalLabelPosition=bottom;verticalAlign=top;html=1;" vertex="1" parent="1">
          <mxGeometry x="900" y="140" width="30" height="60" as="geometry" />
        </mxCell>
        <mxCell id="IHSmPrDhmEadpVmLW_by-11" value="Use Case Pembayaran online Dimsum&lt;div&gt;&lt;br&gt;&lt;/div&gt;" style="whiteSpace=wrap;html=1;aspect=fixed;verticalAlign=top;" vertex="1" parent="1">
          <mxGeometry x="230" y="80" width="580" height="580" as="geometry" />
        </mxCell>
        <mxCell id="IHSmPrDhmEadpVmLW_by-12" value="LIhat Menu" style="ellipse;whiteSpace=wrap;html=1;" vertex="1" parent="1">
          <mxGeometry x="460" y="120" width="110" height="80" as="geometry" />
        </mxCell>
        <mxCell id="IHSmPrDhmEadpVmLW_by-13" value="Buat Pesanan" style="ellipse;whiteSpace=wrap;html=1;" vertex="1" parent="1">
          <mxGeometry x="460" y="230" width="110" height="80" as="geometry" />
        </mxCell>
        <mxCell id="IHSmPrDhmEadpVmLW_by-37" value="" style="edgeStyle=orthogonalEdgeStyle;rounded=0;orthogonalLoop=1;jettySize=auto;html=1;" edge="1" parent="1" source="IHSmPrDhmEadpVmLW_by-14" target="IHSmPrDhmEadpVmLW_by-13">
          <mxGeometry relative="1" as="geometry" />
        </mxCell>
        <mxCell id="IHSmPrDhmEadpVmLW_by-38" value="" style="edgeStyle=orthogonalEdgeStyle;rounded=0;orthogonalLoop=1;jettySize=auto;html=1;" edge="1" parent="1" source="IHSmPrDhmEadpVmLW_by-14" target="IHSmPrDhmEadpVmLW_by-15">
          <mxGeometry relative="1" as="geometry" />
        </mxCell>
        <mxCell id="IHSmPrDhmEadpVmLW_by-14" value="Pembayaran" style="ellipse;whiteSpace=wrap;html=1;" vertex="1" parent="1">
          <mxGeometry x="460" y="330" width="110" height="80" as="geometry" />
        </mxCell>
        <mxCell id="IHSmPrDhmEadpVmLW_by-15" value="Lihat status Pesanan" style="ellipse;whiteSpace=wrap;html=1;" vertex="1" parent="1">
          <mxGeometry x="465" y="430" width="110" height="80" as="geometry" />
        </mxCell>
        <mxCell id="IHSmPrDhmEadpVmLW_by-16" value="Bank" style="shape=umlActor;verticalLabelPosition=bottom;verticalAlign=top;html=1;" vertex="1" parent="1">
          <mxGeometry x="900" y="310" width="30" height="60" as="geometry" />
        </mxCell>
        <mxCell id="IHSmPrDhmEadpVmLW_by-18" value="E-MOney" style="shape=umlActor;verticalLabelPosition=bottom;verticalAlign=top;html=1;" vertex="1" parent="1">
          <mxGeometry x="900" y="490" width="30" height="60" as="geometry" />
        </mxCell>
        <mxCell id="IHSmPrDhmEadpVmLW_by-24" value="" style="endArrow=none;html=1;rounded=0;entryX=0.019;entryY=0.64;entryDx=0;entryDy=0;entryPerimeter=0;" edge="1" parent="1" source="IHSmPrDhmEadpVmLW_by-4" target="IHSmPrDhmEadpVmLW_by-13">
          <mxGeometry width="50" height="50" relative="1" as="geometry">
            <mxPoint x="310" y="260" as="sourcePoint" />
            <mxPoint x="360" y="210" as="targetPoint" />
          </mxGeometry>
        </mxCell>
        <mxCell id="IHSmPrDhmEadpVmLW_by-25" value="" style="endArrow=none;html=1;rounded=0;exitX=1;exitY=1;exitDx=0;exitDy=0;exitPerimeter=0;entryX=0;entryY=0.5;entryDx=0;entryDy=0;" edge="1" parent="1" source="IHSmPrDhmEadpVmLW_by-4" target="IHSmPrDhmEadpVmLW_by-14">
          <mxGeometry width="50" height="50" relative="1" as="geometry">
            <mxPoint x="320" y="270" as="sourcePoint" />
            <mxPoint x="370" y="220" as="targetPoint" />
          </mxGeometry>
        </mxCell>
        <mxCell id="IHSmPrDhmEadpVmLW_by-26" value="" style="endArrow=none;html=1;rounded=0;exitX=0.749;exitY=0.958;exitDx=0;exitDy=0;exitPerimeter=0;entryX=0;entryY=0.5;entryDx=0;entryDy=0;" edge="1" parent="1" source="IHSmPrDhmEadpVmLW_by-4" target="IHSmPrDhmEadpVmLW_by-15">
          <mxGeometry width="50" height="50" relative="1" as="geometry">
            <mxPoint x="330" y="280" as="sourcePoint" />
            <mxPoint x="380" y="230" as="targetPoint" />
          </mxGeometry>
        </mxCell>
        <mxCell id="IHSmPrDhmEadpVmLW_by-27" value="" style="endArrow=none;html=1;rounded=0;exitX=1;exitY=0.5;exitDx=0;exitDy=0;" edge="1" parent="1" source="IHSmPrDhmEadpVmLW_by-13" target="IHSmPrDhmEadpVmLW_by-5">
          <mxGeometry width="50" height="50" relative="1" as="geometry">
            <mxPoint x="340" y="290" as="sourcePoint" />
            <mxPoint x="390" y="240" as="targetPoint" />
          </mxGeometry>
        </mxCell>
        <mxCell id="IHSmPrDhmEadpVmLW_by-28" value="" style="endArrow=none;html=1;rounded=0;" edge="1" parent="1" target="IHSmPrDhmEadpVmLW_by-35">
          <mxGeometry width="50" height="50" relative="1" as="geometry">
            <mxPoint x="140" y="330" as="sourcePoint" />
            <mxPoint x="400" y="250" as="targetPoint" />
          </mxGeometry>
        </mxCell>
        <mxCell id="IHSmPrDhmEadpVmLW_by-29" value="" style="endArrow=none;html=1;rounded=0;entryX=0;entryY=0.3333333333333333;entryDx=0;entryDy=0;entryPerimeter=0;" edge="1" parent="1" source="IHSmPrDhmEadpVmLW_by-14" target="IHSmPrDhmEadpVmLW_by-16">
          <mxGeometry width="50" height="50" relative="1" as="geometry">
            <mxPoint x="560" y="450" as="sourcePoint" />
            <mxPoint x="410" y="260" as="targetPoint" />
          </mxGeometry>
        </mxCell>
        <mxCell id="IHSmPrDhmEadpVmLW_by-30" value="" style="endArrow=none;html=1;rounded=0;" edge="1" parent="1" source="IHSmPrDhmEadpVmLW_by-15">
          <mxGeometry width="50" height="50" relative="1" as="geometry">
            <mxPoint x="370" y="320" as="sourcePoint" />
            <mxPoint x="910" y="210" as="targetPoint" />
          </mxGeometry>
        </mxCell>
        <mxCell id="IHSmPrDhmEadpVmLW_by-31" value="" style="endArrow=none;html=1;rounded=0;exitX=0.667;exitY=0.833;exitDx=0;exitDy=0;exitPerimeter=0;entryX=1;entryY=0.5;entryDx=0;entryDy=0;" edge="1" parent="1" source="IHSmPrDhmEadpVmLW_by-5" target="IHSmPrDhmEadpVmLW_by-14">
          <mxGeometry width="50" height="50" relative="1" as="geometry">
            <mxPoint x="380" y="330" as="sourcePoint" />
            <mxPoint x="430" y="280" as="targetPoint" />
          </mxGeometry>
        </mxCell>
        <mxCell id="IHSmPrDhmEadpVmLW_by-32" value="" style="endArrow=none;html=1;rounded=0;entryX=0;entryY=1;entryDx=0;entryDy=0;entryPerimeter=0;" edge="1" parent="1" source="IHSmPrDhmEadpVmLW_by-35" target="IHSmPrDhmEadpVmLW_by-5">
          <mxGeometry width="50" height="50" relative="1" as="geometry">
            <mxPoint x="390" y="340" as="sourcePoint" />
            <mxPoint x="440" y="290" as="targetPoint" />
          </mxGeometry>
        </mxCell>
        <mxCell id="IHSmPrDhmEadpVmLW_by-33" value="" style="endArrow=none;html=1;rounded=0;exitX=1;exitY=0.3333333333333333;exitDx=0;exitDy=0;exitPerimeter=0;" edge="1" parent="1" source="IHSmPrDhmEadpVmLW_by-4" target="IHSmPrDhmEadpVmLW_by-12">
          <mxGeometry width="50" height="50" relative="1" as="geometry">
            <mxPoint x="400" y="350" as="sourcePoint" />
            <mxPoint x="450" y="300" as="targetPoint" />
          </mxGeometry>
        </mxCell>
        <mxCell id="IHSmPrDhmEadpVmLW_by-35" value="Log in APP/web" style="ellipse;whiteSpace=wrap;html=1;" vertex="1" parent="1">
          <mxGeometry x="460" y="540" width="110" height="80" as="geometry" />
        </mxCell>
        <mxCell id="IHSmPrDhmEadpVmLW_by-36" value="" style="endArrow=none;html=1;rounded=0;entryX=0;entryY=0.3333333333333333;entryDx=0;entryDy=0;entryPerimeter=0;" edge="1" parent="1" target="IHSmPrDhmEadpVmLW_by-18">
          <mxGeometry width="50" height="50" relative="1" as="geometry">
            <mxPoint x="579" y="374" as="sourcePoint" />
            <mxPoint x="910" y="340" as="targetPoint" />
          </mxGeometry>
        </mxCell>
      </root>
    </mxGraphModel>
  </diagram>
</mxfile>
